<?xml version="1.0" encoding="UTF-8" standalone="no"?>
<svg
   xmlns:dc="http://purl.org/dc/elements/1.1/"
   xmlns:cc="http://creativecommons.org/ns#"
   xmlns:rdf="http://www.w3.org/1999/02/22-rdf-syntax-ns#"
   xmlns:svg="http://www.w3.org/2000/svg"
   xmlns="http://www.w3.org/2000/svg"
   xmlns:sodipodi="http://sodipodi.sourceforge.net/DTD/sodipodi-0.dtd"
   xmlns:inkscape="http://www.inkscape.org/namespaces/inkscape"
   version="1.2"
   viewport-fill="#fff"
   id="svg3512"
   inkscape:version="0.91 r13725"
   sodipodi:docname="grafo12.svg"
   width="715"
   height="331"
   inkscape:export-filename="/home/luca/github/documentation/ita/ModuloQspn/UsoIndirizziVirtuali/img/Step10/grafo12.png"
   inkscape:export-xdpi="90"
   inkscape:export-ydpi="90">
  <metadata
     id="metadata3632">
    <rdf:RDF>
      <cc:Work
         rdf:about="">
        <dc:format>image/svg+xml</dc:format>
        <dc:type
           rdf:resource="http://purl.org/dc/dcmitype/StillImage" />
        <dc:title></dc:title>
      </cc:Work>
    </rdf:RDF>
  </metadata>
  <sodipodi:namedview
     pagecolor="#ffffff"
     bordercolor="#666666"
     borderopacity="1"
     objecttolerance="10"
     gridtolerance="10"
     guidetolerance="10"
     inkscape:pageopacity="0"
     inkscape:pageshadow="2"
     inkscape:window-width="1301"
     inkscape:window-height="744"
     id="namedview3630"
     showgrid="false"
     fit-margin-top="0"
     fit-margin-left="0"
     fit-margin-right="0"
     fit-margin-bottom="0"
     inkscape:zoom="1.0730345"
     inkscape:cx="401.48222"
     inkscape:cy="157.48227"
     inkscape:window-x="65"
     inkscape:window-y="24"
     inkscape:window-maximized="1"
     inkscape:current-layer="svg3512" />
  <defs
     id="defs3514" />
  <rect
     x="286.5"
     y="0.5"
     width="428"
     height="330"
     rx="58"
     ry="67"
     id="rect3516"
     style="fill:#ffffff;fill-opacity:0;stroke:#000099" />
  <ellipse
     cx="189"
     cy="161"
     rx="49.5"
     ry="72.5"
     id="ellipse3518"
     style="fill:#ffffff;fill-opacity:0;stroke:#000000" />
  <ellipse
     cx="535"
     cy="282"
     rx="116.5"
     ry="42.5"
     id="ellipse3520"
     style="fill:#ffffff;fill-opacity:0;stroke:#000000" />
  <ellipse
     cx="385"
     cy="161"
     rx="49.5"
     ry="72.5"
     id="ellipse3522"
     style="fill:#ffffff;fill-opacity:0;stroke:#000000" />
  <rect
     x="0.5"
     y="1.5"
     width="263"
     height="305"
     rx="58"
     ry="67"
     id="rect3524"
     style="fill:#ffffff;fill-opacity:0;stroke:#000099" />
  <text
     x="665.58789"
     y="32.5"
     rotate="0"
     font-size="26"
     id="text3526"
     style="font-size:26px;font-family:Verdana">M</text>
  <text
     x="274.71521"
     y="193.5"
     rotate="0"
     font-size="12"
     id="text3528"
     style="font-size:12px;font-family:Verdana;fill-opacity:0;stroke-width:7">Text</text>
  <path
     d="m 406.5,191.16614 c 2.5316,-1.35874 5.50775,-2.87084 6.62,-5.51999 1.88235,-4.48343 2.29232,-9.46634 2.98004,-14.28002 l 0.19998,0 0,-0.39999 c 1.18902,-1.02389 3.10165,-1.46614 4.59998,-1 l 0.20004,0 0,0.2 0.39996,0 0.60004,0.8 0.19998,0 0,0.2 1,1.40001 0.19998,2.39999 -4,1.2 0.4,0.40001 1.8,1.39999 0.40004,0 0,0.2 0.19998,0 0,0.19999 0.19998,0 0,0.40001 0.2,0 0,1.60001 -0.2,0 0,0.39999 -0.19998,0 0,0.19999 -1.80002,1.20001 -3.19998,0.20001 0,0.19998"
     id="path3530"
     inkscape:connector-curvature="0"
     style="fill:none;stroke:#000000;stroke-width:2" />
  <text
     x="419.50586"
     y="195.5"
     rotate="0"
     font-size="12"
     id="text3532"
     style="font-size:12px;font-family:Verdana">i(1,2),i(2,2)</text>
  <path
     d="m 379.5,220.5 c 2.5952,1.14035 4.1467,3.96622 5.59998,6.4 0.41394,3.1843 1.27632,6.42443 0.80002,9.6 l -0.20005,1 -0.19995,0 0,0.2 -0.19998,0 0,0.4 -0.20004,0 0,0.2 -0.59998,0 0,0.2 -3.40002,0 0,-0.2 -0.40003,0 0,-0.4 -0.19995,0 0,-0.2 -0.6,-0.6 -0.20005,-1 -0.19995,0 c -0.0618,-2.0748 -0.0677,-4.22793 0.58002,-6.2 0.41644,-1.26807 1.5282,-2.19242 2.37998,-3.22 2.04388,-2.46568 3.3879,-5.43632 5.04,-8.18 l -0.19998,0"
     id="path3534"
     inkscape:connector-curvature="0"
     style="fill:none;stroke:#000000;stroke-width:2" />
  <path
     d="m 412.6289,114.90001 -1.19998,-0.20001 0,-0.2 -2.59997,0 -0.60005,0.59999 -0.2,0 0,0.20001 -0.59998,0.60001 -0.40002,0.59999 -0.19995,0 0,0.40001 -0.20005,0 0,3.39999 0.80002,0 0,0.2 0.40003,0 0,0.2 0.59997,0 0,0.20001 0.40003,0 0.39995,0.39999 -0.2,0 2.40002,0 0,0.2 -0.40002,0 0,0.2 -1,0 0,0.20001 -1,0 0,-0.20001 -2.4,0.39999 0,0.20001 -0.19998,0 c -0.64508,0.39495 -1.56812,0.73906 -1.72,1.48 -0.20892,1.01916 -0.0533,2.08002 -0.08,3.12001 l 0.20005,0 0.59997,0.79999 0.40003,0 0,0.20001 0.19995,0 0,0.19998 0.2,0 0,0.20001 0.4,0 0,0.2 2.20005,0 0,0.2 c 1.10665,0.0267 2.23083,0.27803 3.31998,0.08 0.45687,-0.0831 0.72,-0.58667 1.07997,-0.87999 l 0.20002,0 0,-0.40001 0.19998,0 0,-0.2 0.20005,0"
     id="path3536"
     inkscape:connector-curvature="0"
     style="fill:none;stroke:#000000;stroke-width:2" />
  <line
     x1="397.5"
     y1="167.5"
     x2="392.5"
     y2="191.5"
     id="line3538"
     style="fill:none;stroke:#000000" />
  <line
     x1="394.5"
     y1="150.5"
     x2="389.5"
     y2="121.5"
     id="line3540"
     style="fill:none;stroke:#000000" />
  <path
     d="m 416.80877,65.406333 c -0.65148,-1.036548 -0.99039,-2.468828 -1.95446,-3.109642 -1.76333,-1.172073 -4.76838,0.0183 -5.8634,1.989256 -1.838,3.308266 -2.14841,9.77499 0.81768,11.729752 2.89259,1.906315 6.49911,2.321269 9.83217,2.149311 2.04185,-0.105343 4.2936,-1.086757 5.58419,-2.903857 1.51592,-2.134369 2.27504,-5.310646 1.77497,-8.002754 -0.44354,-2.387793 -2.42818,-4.170347 -4.20808,-5.510468 l 0,-0.228651 -3.58984,-0.68595 c -3.0178,2.838866 -1.5482,8.831974 -1.5556,13.307438 -0.008,4.558159 0.10637,9.115519 0.15955,13.673277 l 0.19944,0 1.19661,0.68595"
     id="path3542"
     inkscape:connector-curvature="0"
     style="fill:none;stroke:#000000;stroke-width:1.92189348" />
  <text
     x="115.5"
     y="27.5"
     rotate="0"
     font-size="26"
     id="text3544"
     style="font-size:26px;font-family:Verdana">N</text>
  <g
     id="g3546"
     transform="translate(-46.5,-16.5)">
    <polyline
       points="0,7, 0.6666667,5.6666665, 0.6666667,5, 3,1.6666666, 3.6666667,0.6666667, 4.3333335,0.6666667, 4.3333335,0.33333334, 4.6666665,0.33333334, 4.6666665,0, 6.6666665,0, 6.6666665,0.33333334, 7,0.33333334, 7,1, 7.3333335,1, 7.3333335,2, 7.6666665,2, 8.333333,11.333333, 8.666667,11.333333, 8.666667,16, 8.333333,16, 9,23.333334, 9.666667,23.333334"
       transform="matrix(1.137931,0,0,0.875,477,23)"
       id="polyline3548"
       style="fill:none;stroke:#000000;stroke-width:2" />
    <polyline
       points="1,24, 1,22, 2.3333333,19.666666, 2.3333333,17.666666, 2.6666667,17.666666, 2.6666667,15, 3,15, 3,14.333333, 4,13.333333, 4,13, 4.3333335,13, 4.3333335,12.666667, 5.3333335,12.666667, 5.3333335,12.333333, 6.3333335,12.333333, 6.3333335,13, 7,13, 7,13.333333, 7.6666665,13.333333, 7.6666665,13.666667, 8,13.666667"
       transform="matrix(1.137931,0,0,0.875,477,23)"
       id="polyline3550"
       style="fill:none;stroke:#000000;stroke-width:2" />
  </g>
  <line
     x1="393.5"
     y1="206.5"
     x2="440.5"
     y2="279.5"
     id="line3552"
     style="fill:none;stroke:#000000" />
  <line
     x1="391.5"
     y1="103.5"
     x2="413.5"
     y2="29.5"
     id="line3554"
     style="fill:none;stroke:#000000" />
  <path
     d="m 197.5,177.16614 c 2.53162,-1.35874 5.50775,-2.87084 6.62,-5.51999 1.88235,-4.48343 2.29232,-9.46635 2.98004,-14.28003 l 0.19998,0 0,-0.39999 c 1.18901,-1.02387 3.10165,-1.46613 4.59998,-1 l 0.20004,0 0,0.20001 0.39996,0 0.60004,0.79999 0.19998,0 0,0.20001 1,1.40002 0.19998,2.39997 -4,1.20001 0.4,0.40002 1.8,1.39997 0.40004,0 0,0.20001 0.19998,0 0,0.19998 0.19998,0 0,0.40002 0.2,0 0,1.60001 -0.2,0 0,0.39999 -0.19998,0 0,0.19999 -1.80002,1.20001 -3.19998,0.20001 0,0.19998"
     id="path3556"
     inkscape:connector-curvature="0"
     style="fill:none;stroke:#000000;stroke-width:2" />
  <text
     x="211.68555"
     y="178.5"
     rotate="0"
     font-size="12"
     id="text3558"
     style="font-size:12px;font-family:Verdana">i(1,2),N</text>
  <path
     d="m 196.82089,219.5 c 2.5952,1.14035 4.1467,3.96622 5.59998,6.4 0.41394,3.1843 1.27632,6.42443 0.80002,9.6 l -0.20005,1 -0.19995,0 0,0.2 -0.19998,0 0,0.4 -0.20004,0 0,0.2 -0.59998,0 0,0.2 -3.40002,0 0,-0.2 -0.40003,0 0,-0.4 -0.19995,0 0,-0.2 -0.6,-0.6 -0.20005,-1 -0.19995,0 c -0.0618,-2.0748 -0.0677,-4.22793 0.58002,-6.2 0.41644,-1.26807 1.5282,-2.19242 2.37997,-3.22 2.04389,-2.46568 3.38792,-5.43632 5.04001,-8.18 l -0.19998,0"
     id="path3560"
     inkscape:connector-curvature="0"
     style="fill:none;stroke:#000000;stroke-width:2" />
  <path
     d="m 203.62889,110.42197 -1.19998,-0.19997 0,-0.20003 -2.59996,0 -0.60005,0.59998 -0.2,0 0,0.20005 -0.59999,0.59997 -0.40001,0.6 -0.19995,0 0,0.4 -0.20006,0 0,3.40003 0.80002,0 0,0.19997 0.40004,0 0,0.20003 0.59996,0 0,0.19997 0.40004,0 0.39995,0.40003 -0.2,0 2.40001,0 0,0.19997 -0.40001,0 0,0.20003 -1,0 0,0.19997 -1,0 0,-0.19997 -2.40001,0.39995 0,0.20005 -0.19998,0 c -0.64508,0.39492 -1.56811,0.73904 -1.71999,1.47997 -0.20892,1.01917 -0.0533,2.08003 -0.08,3.12 l 0.20006,0 0.59996,0.80003 0.40004,0 0,0.19997 0.19995,0 0,0.19998 0.2,0 0,0.20005 0.39999,0 0,0.19997 2.20006,0 0,0.20003 c 1.10665,0.0267 2.23082,0.278 3.31998,0.08 0.45686,-0.0831 0.72,-0.58667 1.07997,-0.88 l 0.20001,0 0,-0.4 0.19998,0 0,-0.19997 0.20006,0"
     id="path3562"
     inkscape:connector-curvature="0"
     style="fill:none;stroke:#000000;stroke-width:2" />
  <line
     x1="189.5"
     y1="166.5"
     x2="187.5"
     y2="205.5"
     id="line3564"
     style="fill:none;stroke:#000000" />
  <line
     x1="188.5"
     y1="147.5"
     x2="183.5"
     y2="112.5"
     id="line3566"
     style="fill:none;stroke:#000000" />
  <path
     d="m 220.20507,56.406343 c -0.65148,-1.036548 -0.99039,-2.468828 -1.95446,-3.109642 -1.76333,-1.172073 -4.76838,0.0183 -5.8634,1.989256 -1.838,3.308266 -2.14841,9.77499 0.81768,11.729752 2.89259,1.906315 6.49911,2.321269 9.83217,2.149311 2.04185,-0.105343 4.2936,-1.086757 5.58419,-2.903857 1.51592,-2.134369 2.27504,-5.310646 1.77497,-8.002754 -0.44354,-2.387793 -2.42818,-4.170347 -4.20808,-5.510468 l 0,-0.228651 -3.58984,-0.68595 c -3.0178,2.838866 -1.5482,8.831974 -1.5556,13.307438 -0.008,4.558159 0.10637,9.115519 0.15955,13.673277 l 0.19944,0 1.19661,0.68595"
     id="path3568"
     inkscape:connector-curvature="0"
     style="fill:none;stroke:#000000;stroke-width:1.92189348" />
  <text
     x="227.52344"
     y="86.5"
     rotate="0"
     font-size="12"
     id="text3570"
     style="font-size:12px;font-family:Verdana">N</text>
  <text
     x="207.52344"
     y="236.5"
     rotate="0"
     font-size="12"
     id="text3572"
     style="font-size:12px;font-family:Verdana">N</text>
  <text
     x="207.52344"
     y="130.5"
     rotate="0"
     font-size="12"
     id="text3574"
     style="font-size:12px;font-family:Verdana">N</text>
  <text
     x="417.68555"
     y="133.56445"
     rotate="0"
     font-size="12"
     id="text3576"
     style="font-size:12px;font-family:Verdana">i(2,2)</text>
  <text
     x="394.68555"
     y="244.56445"
     rotate="0"
     font-size="12"
     id="text3578"
     style="font-size:12px;font-family:Verdana">i(2,2)</text>
  <text
     x="422.5"
     y="88.5"
     rotate="0"
     font-size="12"
     id="text3580"
     style="font-size:12px;font-family:Verdana">i(2,2)</text>
  <circle
     cx="182.5"
     cy="111.5"
     r="8"
     id="circle3582"
     style="stroke:#000000" />
  <circle
     cx="189"
     cy="157"
     r="8.5"
     id="circle3584"
     style="fill-opacity:0;stroke:#000000;stroke-width:7" />
  <circle
     cx="187"
     cy="208"
     r="8.5"
     id="circle3586"
     style="stroke:#000000" />
  <circle
     cx="397"
     cy="159"
     r="8.5"
     id="circle3588"
     style="fill-opacity:0;stroke:#000000;stroke-width:7" />
  <path
     d="m 463.5,298.1 c 0.2235,-0.69845 0.41473,-1.5952 0,-2.2 l 0,-0.2 -0.4,0 0,-0.2 c -2.0593,0.45135 -4.2729,0.79102 -6,2 l -1,1.4 1.6,3.2 0,0.4 0.2,0 0,0.2 c 1.4929,1.52763 4.06655,2.9573 6.04,2.14 0.63275,-0.26203 1.0186,-0.9463 1.36,-1.54 l 1.6,-2 c 0.2251,-1.99177 0.5712,-4.0029 0.4,-6 l -0.2,0 0,-0.6 -0.2,0 -0.2,-1.6 -0.8,-1.4 -0.2,-1 -0.8,-1.2 -0.6,-6 0.2,0 0,-0.4 1,-1 0,-0.2 0.2,0 1.8,-1.4"
     id="path3590"
     inkscape:connector-curvature="0"
     style="fill:none;stroke:#000000;stroke-width:2" />
  <path
     d="m 617.1,292.5 c 0.49393,-2.16577 2.54905,-3.7582 3.06,-5.92 0.63895,-2.70326 0.6267,-5.52 0.94,-8.28 l 0.2,0 0.2,-1.8 0.2,0 0,-1.2 0.2,0 0.4,8.8 0.2,0 c 0.0989,0.65928 0.6643,1.2032 1.2,1.6 l 2.2,-0.4 0.6,-0.8 0.6,-0.6 0.8,-8.4 0.4,11.4 0.2,0"
     id="path3592"
     inkscape:connector-curvature="0"
     style="fill:none;stroke:#000000;stroke-width:2" />
  <circle
     cx="603"
     cy="287"
     r="8.5"
     id="circle3594"
     style="stroke:#000000" />
  <line
     x1="445.5"
     y1="282.5"
     x2="602.5"
     y2="287.5"
     id="line3596"
     style="fill:none;stroke:#000000" />
  <ellipse
     cx="66.5"
     cy="120"
     rx="31"
     ry="75.5"
     id="ellipse3598"
     style="fill:#ffffff;fill-opacity:0;stroke:#000000" />
  <path
     d="m 61.5,98.79604 -1,0 c -2.08488,2.202 -3.51244,4.95751 -5,7.59999 l 0,0.20001 c -1.41514,0.10199 -3.64001,0.0213 -4.04,-1.34 -0.33033,-1.12418 -0.86822,-2.31489 -0.62,-3.46 0.28654,-1.32191 1.08405,-2.59031 2.12,-3.46 0.99587,-0.83604 2.94977,-0.80758 3.9,0.08 2.03121,1.89729 2.86368,4.76519 4.24,7.18 l 0,0.4 0.4,0"
     id="path3600"
     inkscape:connector-curvature="0"
     style="fill:none;stroke:#000000;stroke-width:2" />
  <path
     d="m 43.5,172.5 c 2.53157,-1.35875 5.50777,-2.87086 6.62,-5.52 1.88237,-4.48342 2.29232,-9.46633 2.98,-14.28 l 0.2,0 0,-0.4 c 1.18904,-1.0239 3.10169,-1.46614 4.6,-1 l 0.2,0 0,0.2 0.4,0 0.6,0.8 0.2,0 0,0.2 1,1.4 0.2,2.4 -4,1.2 0.4,0.4 1.8,1.4 0.4,0 0,0.2 0.2,0 0,0.2 0.2,0 0,0.4 0.2,0 0,1.6 -0.2,0 0,0.4 -0.2,0 0,0.2 -1.8,1.2 -3.2,0.2 0,0.2"
     id="path3602"
     inkscape:connector-curvature="0"
     style="fill:none;stroke:#000000;stroke-width:2" />
  <line
     x1="68.5"
     y1="136.5"
     x2="64.5"
     y2="83.5"
     id="line3604"
     style="fill:none;stroke:#000000" />
  <circle
     cx="63.5"
     cy="82.5"
     r="8"
     id="circle3606"
     style="stroke:#000000" />
  <text
     x="60.5"
     y="178.5"
     rotate="0"
     font-size="12"
     id="text3608"
     style="font-size:12px;font-family:Verdana">B</text>
  <line
     x1="188.5"
     y1="108.5"
     x2="410.5"
     y2="29.5"
     id="line3610"
     style="fill:none;stroke:#000000" />
  <line
     x1="180.5"
     y1="110.5"
     x2="70.5"
     y2="137.5"
     id="line3612"
     style="fill:none;stroke:#000000" />
  <line
     x1="183.5"
     y1="206.5"
     x2="72.5"
     y2="140.5"
     id="line3614"
     style="fill:none;stroke:#000000" />
  <line
     x1="191.5"
     y1="207.5"
     x2="437.5"
     y2="282.5"
     id="line3616"
     style="fill:none;stroke:#000000" />
  <circle
     cx="413"
     cy="28"
     r="8.5"
     id="circle3618"
     style="stroke:#000000" />
  <circle
     cx="388"
     cy="201"
     r="8.5"
     id="circle3620"
     style="fill-opacity:0;stroke:#000000;stroke-width:7" />
  <circle
     cx="387"
     cy="113"
     r="8.5"
     id="circle3622"
     style="fill-opacity:0;stroke:#000000;stroke-width:7" />
  <circle
     cx="69.5"
     cy="138.5"
     r="8"
     id="circle3624"
     style="stroke:#000000" />
  <circle
     cx="443"
     cy="284"
     r="8.5"
     id="circle3626"
     style="stroke:#000000" />
  <ellipse
     cx="427"
     cy="24.5"
     rx="40.5"
     ry="22"
     id="ellipse3628"
     style="fill:#ffffff;fill-opacity:0;stroke:#000000" />
</svg>
