<?xml version="1.0" encoding="UTF-8" standalone="no"?>
<svg
   xmlns:dc="http://purl.org/dc/elements/1.1/"
   xmlns:cc="http://creativecommons.org/ns#"
   xmlns:rdf="http://www.w3.org/1999/02/22-rdf-syntax-ns#"
   xmlns:svg="http://www.w3.org/2000/svg"
   xmlns="http://www.w3.org/2000/svg"
   xmlns:sodipodi="http://sodipodi.sourceforge.net/DTD/sodipodi-0.dtd"
   xmlns:inkscape="http://www.inkscape.org/namespaces/inkscape"
   version="1.2"
   viewport-fill="#fff"
   id="svg3460"
   inkscape:version="0.91 r13725"
   sodipodi:docname="grafo7.svg"
   width="632.0376"
   height="265.32947"
   inkscape:export-filename="/home/luca/github/documentation/ita/ModuloQspn/UsoIndirizziVirtuali/img/Step6/grafo7.png"
   inkscape:export-xdpi="90"
   inkscape:export-ydpi="90">
  <metadata
     id="metadata3528">
    <rdf:RDF>
      <cc:Work
         rdf:about="">
        <dc:format>image/svg+xml</dc:format>
        <dc:type
           rdf:resource="http://purl.org/dc/dcmitype/StillImage" />
        <dc:title></dc:title>
      </cc:Work>
    </rdf:RDF>
  </metadata>
  <sodipodi:namedview
     pagecolor="#ffffff"
     bordercolor="#666666"
     borderopacity="1"
     objecttolerance="10"
     gridtolerance="10"
     guidetolerance="10"
     inkscape:pageopacity="0"
     inkscape:pageshadow="2"
     inkscape:window-width="1301"
     inkscape:window-height="744"
     id="namedview3526"
     showgrid="false"
     fit-margin-top="0"
     fit-margin-left="0"
     fit-margin-right="0"
     fit-margin-bottom="0"
     inkscape:zoom="1.0730345"
     inkscape:cx="118.94142"
     inkscape:cy="222.54335"
     inkscape:window-x="65"
     inkscape:window-y="24"
     inkscape:window-maximized="1"
     inkscape:current-layer="svg3460" />
  <defs
     id="defs3462" />
  <ellipse
     cx="336.19833"
     cy="61.71777"
     rx="92.321358"
     ry="72.461372"
     transform="matrix(0.96811045,0.25052377,-0.21143507,0.97739205,0,0)"
     id="ellipse3464"
     style="fill:#ffffff;fill-opacity:0;stroke:#000099;stroke-width:1.03882515" />
  <ellipse
     cx="113.42975"
     cy="52.5"
     rx="112.5"
     ry="52"
     id="ellipse3466"
     style="fill:#ffffff;fill-opacity:0;stroke:#000000;stroke-width:1.36363637" />
  <ellipse
     cx="115.92975"
     cy="56"
     rx="85"
     ry="39.5"
     id="ellipse3468"
     style="fill:#ffffff;fill-opacity:0;stroke:#000099" />
  <ellipse
     cx="312.08817"
     cy="440.78262"
     rx="97.956436"
     ry="39.081596"
     transform="matrix(0.78606375,-0.61814544,0.62689353,0.77910494,0,0)"
     id="ellipse3470"
     style="fill:#ffffff;fill-opacity:0;stroke:#000000;stroke-width:3.26100445" />
  <circle
     cx="332.42975"
     cy="131"
     r="8.5"
     id="circle3472"
     style="fill-opacity:0;stroke:#000000;stroke-width:7" />
  <line
     x1="335.92975"
     y1="139.5"
     x2="339.92975"
     y2="177.5"
     id="line3474"
     style="fill:none;stroke:#000000" />
  <path
     d="m 62.929752,68.79604 -1,0 c -2.08488,2.202 -3.51244,4.95751 -5,7.59999 l 0,0.20001 c -1.41514,0.10199 -3.64001,0.0213 -4.04,-1.34 -0.33033,-1.12418 -0.86822,-2.31489 -0.62,-3.46 0.28654,-1.32191 1.08405,-2.59031 2.12,-3.46 0.99587,-0.83604 2.949775,-0.80758 3.9,0.08 2.03121,1.89729 2.86368,4.76519 4.24,7.18 l 0,0.4 0.4,0"
     id="path3476"
     inkscape:connector-curvature="0"
     style="fill:none;stroke:#000000;stroke-width:2" />
  <path
     d="m 349.92975,148.16614 c 2.53156,-1.35875 5.50775,-2.87087 6.62,-5.52001 1.88235,-4.48341 2.29232,-9.46632 2.98,-14.28 l 0.2,0 0,-0.39999 c 1.18904,-1.02389 3.10167,-1.46614 4.6,-1 l 0.2,0 0,0.2 0.4,0 0.6,0.8 0.2,0 0,0.2 1,1.40001 0.2,2.39999 -4,1.2 0.4,0.40001 1.8,1.39999 0.4,0 0,0.2 0.2,0 0,0.19999 0.2,0 0,0.40001 0.2,0 0,1.59999 -0.2,0 0,0.40001 -0.2,0 0,0.2 -1.8,1.2 -3.2,0.19999 0,0.20002"
     id="path3478"
     inkscape:connector-curvature="0"
     style="fill:none;stroke:#000000;stroke-width:2" />
  <text
     x="366.1153"
     y="150.56445"
     rotate="0"
     font-size="12"
     id="text3480"
     style="font-size:12px;font-family:Verdana">i(1,2)</text>
  <path
     d="m 358.21265,186.5 c 2.59524,1.14034 4.1467,3.96619 5.6,6.4 0.41394,3.1843 1.27634,6.42443 0.8,9.6 l -0.20002,1 -0.19998,0 0,0.2 -0.2,0 0,0.4 -0.2,0 0,0.2 -0.6,0 0,0.2 -3.4,0 0,-0.2 -0.40002,0 0,-0.4 -0.19998,0 0,-0.2 -0.6,-0.6 -0.20002,-1 -0.19998,0 c -0.0617,-2.07478 -0.0677,-4.22794 0.58,-6.2 0.41646,-1.26806 1.5282,-2.19243 2.38,-3.22 2.0439,-2.46568 3.3879,-5.43633 5.04,-8.18 l -0.2,0"
     id="path3482"
     inkscape:connector-curvature="0"
     style="fill:none;stroke:#000000;stroke-width:2" />
  <path
     d="m 498.14495,194.1 c 0.2235,-0.69845 0.41474,-1.5952 0,-2.2 l 0,-0.2 -0.4,0 0,-0.2 c -2.0593,0.45135 -4.2729,0.79103 -6,2 l -1,1.4 1.6,3.2 0,0.4 0.2,0 0,0.2 c 1.4929,1.52762 4.06656,2.95729 6.04,2.14 0.63276,-0.26204 1.0186,-0.9463 1.36,-1.54 l 1.6,-2 c 0.22513,-1.99176 0.5712,-4.0029 0.4,-6 l -0.2,0 0,-0.6 -0.2,0 -0.2,-1.6 -0.8,-1.4 -0.2,-1 -0.8,-1.2 -0.6,-6 0.2,0 0,-0.4 1,-1 0,-0.2 0.2,0 1.8,-1.4"
     id="path3484"
     inkscape:connector-curvature="0"
     style="fill:none;stroke:#000000;stroke-width:2" />
  <path
     d="m 562.74495,136.5 c 0.49394,-2.16576 2.54906,-3.75821 3.06,-5.92 0.63896,-2.70325 0.6267,-5.52 0.94,-8.28 l 0.2,0 0.2,-1.8 0.2,0 0,-1.2 0.2,0 0.4,8.8 0.2,0 c 0.0989,0.6593 0.6643,1.20319 1.2,1.6 l 2.2,-0.4 0.6,-0.8 0.6,-0.6 0.8,-8.4 0.4,11.4 0.2,0"
     id="path3486"
     inkscape:connector-curvature="0"
     style="fill:none;stroke:#000000;stroke-width:2" />
  <circle
     cx="477.64496"
     cy="176"
     r="8.5"
     id="circle3488"
     style="stroke:#000000" />
  <line
     x1="337.92975"
     y1="183.5"
     x2="477.14496"
     y2="175.5"
     id="line3490"
     style="fill:none;stroke:#000000" />
  <circle
     cx="565.64496"
     cy="104"
     r="8.5"
     id="circle3492"
     style="stroke:#000000" />
  <line
     x1="478.14496"
     y1="176.5"
     x2="565.14496"
     y2="103.5"
     id="line3494"
     style="fill:none;stroke:#000000" />
  <path
     d="m 235.92975,77.5 c -8.04245,13.136 -27.01802,36.12119 -31,51 -5.00533,18.70251 -5.31242,46.71841 -2.6848,65.9 1.40074,10.22541 8.51206,19.6644 16.5,26.2 5.70567,4.66828 12.76402,7.38993 19.3,10.8 10.85077,5.66128 21.37076,12.19326 32.9,16.3 13.3098,4.74095 27.61523,6.48332 41.7,7.6 57.2715,4.5407 116.1111,16.27712 172.3,4.3 19.3231,-4.1189 38.0254,-12.39425 54.5,-23.3 16.89105,-11.18138 39.212,-16.07295 51.6,-32.1 8.5105,-11.01046 18.51596,-21.42609 23.8,-34.3 12.9005,-31.43041 20.0848,-67.19277 15.1,-100.8 -1.5124,-10.19664 -8.0374,-20.97703 -17.2,-25.7 -14.1809,-7.30972 -31.6577,-4.389075 -47.6,-5 -7.1026,-0.27218 -14.24413,-1.85771 -21.3,-1 -16.519,2.00805 -38.7294,-6.76406 -54.9152,-2.9 -11.333,2.70553 -114.4901,0.18973 -126,2 -65.4268,10.29026 -20,-10 -88,18 -10.20953,4.203926 -31.0375,13.43078 -38,22"
     id="path3496"
     inkscape:connector-curvature="0"
     style="fill:none;stroke:#000000" />
  <line
     x1="330.92975"
     y1="122.5"
     x2="309.92975"
     y2="91.5"
     id="line3498"
     style="fill:none;stroke:#000000" />
  <path
     d="m 332.72975,87.42197 -1.2,-0.2 0,-0.2 -2.6,0 -0.6,0.6 -0.2,0 0,0.2 -0.6,0.6 -0.4,0.6 -0.2,0 0,0.4 -0.2,0 0,3.4 0.8,0 0,0.2 0.4,0 0,0.2 0.6,0 0,0.2 0.4,0 0.4,0.40001 -0.2,0 2.4,0 0,0.19999 -0.4,0 0,0.2 -1,0 0,0.2 -1,0 0,-0.2 -2.4,0.39999 0,0.20002 -0.2,0 c -0.64507,0.39494 -1.5681,0.73904 -1.72,1.47999 -0.2089,1.01915 -0.0533,2.08 -0.08,3.12 l 0.2,0 0.6,0.8 0.4,0 0,0.2 0.2,0 0,0.19999 0.2,0 0,0.20002 0.4,0 0,0.19999 2.2,0 0,0.2 c 1.1067,0.0267 2.23087,0.27803 3.32,0.08 0.4569,-0.0831 0.72,-0.58665 1.08,-0.88 l 0.2,0 0,-0.4 0.2,0 0,-0.19999 0.2,0"
     id="path3500"
     inkscape:connector-curvature="0"
     style="fill:none;stroke:#000000;stroke-width:2" />
  <text
     x="393.15631"
     y="120.5"
     rotate="0"
     font-size="26"
     id="text3502"
     style="font-size:26px;font-family:Verdana">A</text>
  <text
     x="42.929752"
     y="28.5"
     rotate="0"
     font-size="21"
     id="text3504"
     style="font-size:21px;font-family:Verdana">B</text>
  <text
     x="280.14496"
     y="175.5"
     rotate="0"
     font-size="12"
     id="text3506"
     style="font-size:12px;font-family:Verdana;fill-opacity:0;stroke-width:7">Text</text>
  <path
     d="m 134.92975,82.5 c 2.53157,-1.35875 5.50777,-2.87086 6.62,-5.52 1.88237,-4.48342 2.29232,-9.46633 2.98,-14.28 l 0.2,0 0,-0.4 c 1.18904,-1.0239 3.10169,-1.46614 4.6,-1 l 0.2,0 0,0.2 0.4,0 0.6,0.8 0.2,0 0,0.2 1,1.4 0.2,2.4 -4,1.2 0.4,0.4 1.8,1.4 0.4,0 0,0.2 0.2,0 0,0.2 0.2,0 0,0.4 0.2,0 0,1.6 -0.2,0 0,0.4 -0.2,0 0,0.2 -1.8,1.2 -3.2,0.2 0,0.2"
     id="path3508"
     inkscape:connector-curvature="0"
     style="fill:none;stroke:#000000;stroke-width:2" />
  <line
     x1="164.92975"
     y1="55.5"
     x2="59.929752"
     y2="55.5"
     id="line3510"
     style="fill:none;stroke:#000000" />
  <line
     x1="168.92975"
     y1="58.5"
     x2="340.92975"
     y2="181.5"
     id="line3512"
     style="fill:none;stroke:#000000" />
  <line
     x1="166.92975"
     y1="53.5"
     x2="309.92975"
     y2="87.5"
     id="line3514"
     style="fill:none;stroke:#000000" />
  <text
     x="150.92975"
     y="83.564453"
     rotate="0"
     font-size="12"
     id="text3516"
     style="font-size:12px;font-family:Verdana;stroke:#000000">B</text>
  <circle
     cx="309.92975"
     cy="89.5"
     r="8"
     id="circle3518"
     style="stroke:#000000" />
  <circle
     cx="58.929752"
     cy="54.5"
     r="8"
     id="circle3520"
     style="stroke:#000000" />
  <circle
     cx="339.42975"
     cy="183"
     r="8.5"
     id="circle3522"
     style="stroke:#000000" />
  <circle
     cx="165.92975"
     cy="55.5"
     r="8"
     id="circle3524"
     style="stroke:#000000" />
</svg>
