<?xml version="1.0" encoding="UTF-8"?>
<svg xmlns="http://www.w3.org/2000/svg" xmlns:xlink="http://www.w3.org/1999/xlink" version="1.2" baseProfile="tiny" viewport-fill="#fff"><defs/><ellipse cx="40" cy="88" rx="32" ry="80" fill="#fff" fill-opacity="0" stroke="#000"/><circle cx="40" cy="40" r="8" stroke="#000"/><circle cx="40" cy="88" r="8" stroke="#000"/><circle cx="128" cy="40" r="8" stroke="#000"/><circle cx="128" cy="88" r="8" stroke="#000"/><circle cx="40" cy="136" r="8" stroke="#000"/><circle cx="128" cy="136" r="8" stroke="#000"/><line x1="40" y1="136" x2="40" y2="88" fill="none" stroke="#000"/><line x1="40" y1="88" x2="40" y2="40" fill="none" stroke="#000"/><line x1="40" y1="88" x2="128" y2="88" fill="none" stroke="#000"/><line x1="128" y1="88" x2="128" y2="40" fill="none" stroke="#000"/><line x1="128" y1="88" x2="128" y2="136" fill="none" stroke="#000"/><ellipse cx="128" cy="88" rx="32" ry="80" fill="#fff" fill-opacity="0" stroke="#000"/><text x="48.796875" y="83" rotate="0" font-family="Verdana" font-size="12">b</text><text x="48.796875" y="131" rotate="0" font-family="Verdana" font-size="12">c</text><text x="137.79688" y="81" rotate="0" font-family="Verdana" font-size="12">e</text><text x="48.796875" y="49.064453" rotate="0" font-family="Verdana" font-size="12">a</text><text x="134.79688" y="129" rotate="0" font-family="Verdana" font-size="12">f</text><text x="137" y="49" rotate="0" font-family="Verdana" font-size="12">d</text><text x="64" y="24" rotate="0" font-family="Verdana" font-size="12">g1</text><text x="159" y="30" rotate="0" font-family="Verdana" font-size="12">g2</text></svg>