<?xml version="1.0" encoding="UTF-8"?>
<svg xmlns="http://www.w3.org/2000/svg" xmlns:xlink="http://www.w3.org/1999/xlink" version="1.2" baseProfile="tiny" viewport-fill="#fff"><defs/><ellipse cx="153.44727" cy="116" rx="38.552734" ry="108" fill="#fff" fill-opacity="0" stroke="#000"/><ellipse cx="48.5" cy="116.5" rx="40.5" ry="108.5" fill="#fff" fill-opacity="0" stroke="#000"/><circle cx="40" cy="40" r="8" stroke="#000"/><circle cx="40" cy="88" r="8" fill-opacity="0" stroke="#000" stroke-width="4"/><circle cx="146.89453" cy="40" r="8" stroke="#000"/><circle cx="146.89453" cy="88" r="8" stroke="#000"/><circle cx="146.89453" cy="136" r="8" stroke="#000"/><line x1="40" y1="129" x2="40" y2="96" fill="none" stroke="#000"/><line x1="40" y1="79" x2="40" y2="40" fill="none" stroke="#000"/><line x1="146.89453" y1="88" x2="146.89453" y2="40" fill="none" stroke="#000"/><line x1="146.89453" y1="88" x2="146.89453" y2="136" fill="none" stroke="#000"/><text x="48.796875" y="83" rotate="0" font-family="Verdana" font-size="12">e</text><text x="47" y="127" rotate="0" font-family="Verdana" font-size="12">r</text><text x="156.6914" y="81" rotate="0" font-family="Verdana" font-size="12">e</text><text x="45" y="57" rotate="0" font-family="Verdana" font-size="12">a</text><text x="153.6914" y="129" rotate="0" font-family="Verdana" font-size="12">r</text><text x="155.89453" y="49" rotate="0" font-family="Verdana" font-size="12">d</text><text x="70.89453" y="21.064453" rotate="0" font-family="Verdana" font-size="12">g1</text><text x="181" y="27.064453" rotate="0" font-family="Verdana" font-size="12">g2</text><text x="56.910645" y="85" rotate="0" font-family="Verdana" font-size="10">i(1)</text><circle cx="146.89453" cy="186" r="8" stroke="#000"/><line x1="146.89453" y1="138" x2="146.89453" y2="186" fill="none" stroke="#000"/><text x="153.6914" y="179" rotate="0" font-family="Verdana" font-size="12">f</text><circle cx="40" cy="186" r="8" stroke="#000"/><line x1="40" y1="145" x2="40" y2="186" fill="none" stroke="#000"/><text x="46.79687" y="179" rotate="0" font-family="Verdana" font-size="12">c</text><circle cx="40" cy="137" r="8" fill-opacity="0" stroke="#000" stroke-width="4"/><text x="56" y="132" rotate="0" font-family="Verdana" font-size="10">i(1)</text><line x1="41" y1="185" x2="145" y2="137" fill="none" stroke="#000"/><line x1="146" y1="89" x2="40" y2="42" fill="none" stroke="#000"/></svg>