<?xml version="1.0" encoding="UTF-8" standalone="no"?>
<svg
   xmlns:dc="http://purl.org/dc/elements/1.1/"
   xmlns:cc="http://creativecommons.org/ns#"
   xmlns:rdf="http://www.w3.org/1999/02/22-rdf-syntax-ns#"
   xmlns:svg="http://www.w3.org/2000/svg"
   xmlns="http://www.w3.org/2000/svg"
   xmlns:sodipodi="http://sodipodi.sourceforge.net/DTD/sodipodi-0.dtd"
   xmlns:inkscape="http://www.inkscape.org/namespaces/inkscape"
   version="1.2"
   viewport-fill="#fff"
   id="svg2"
   inkscape:version="0.91 r13725"
   sodipodi:docname="grafo2.svg"
   width="559.39264"
   height="265.32947"
   inkscape:export-filename="/home/luca/github/documentation/ita/ModuloQspn/UsoIndirizziVirtuali/img/Step2/grafo2.png"
   inkscape:export-xdpi="90"
   inkscape:export-ydpi="90">
  <metadata
     id="metadata46">
    <rdf:RDF>
      <cc:Work
         rdf:about="">
        <dc:format>image/svg+xml</dc:format>
        <dc:type
           rdf:resource="http://purl.org/dc/dcmitype/StillImage" />
        <dc:title />
      </cc:Work>
    </rdf:RDF>
  </metadata>
  <sodipodi:namedview
     pagecolor="#ffffff"
     bordercolor="#666666"
     borderopacity="1"
     objecttolerance="10"
     gridtolerance="10"
     guidetolerance="10"
     inkscape:pageopacity="0"
     inkscape:pageshadow="2"
     inkscape:window-width="1301"
     inkscape:window-height="744"
     id="namedview44"
     showgrid="false"
     fit-margin-top="0"
     fit-margin-left="0"
     fit-margin-right="0"
     fit-margin-bottom="0"
     inkscape:zoom="1.668772"
     inkscape:cx="266.39044"
     inkscape:cy="148.64267"
     inkscape:window-x="65"
     inkscape:window-y="24"
     inkscape:window-maximized="1"
     inkscape:current-layer="svg2" />
  <defs
     id="defs4" />
  <ellipse
     cx="255.48657"
     cy="395.87466"
     rx="97.956436"
     ry="39.081596"
     transform="matrix(0.78606375,-0.61814544,0.62689353,0.77910494,0,0)"
     id="ellipse6"
     style="fill:#ffffff;fill-opacity:0;stroke:#000000;stroke-width:3.26100445" />
  <circle
     cx="58.5"
     cy="54.5"
     r="8"
     id="circle8"
     style="stroke:#000000" />
  <circle
     cx="190"
     cy="145"
     r="8.5"
     id="circle10"
     style="stroke:#000000" />
  <line
     x1="58.5"
     y1="54.5"
     x2="191.5"
     y2="143.5"
     id="line12"
     style="fill:none;stroke:#000000" />
  <circle
     cx="293"
     cy="168"
     r="8.5"
     id="circle14"
     style="stroke:#000000" />
  <line
     x1="189.5"
     y1="144.5"
     x2="292.5"
     y2="167.5"
     id="line16"
     style="fill:none;stroke:#000000" />
  <circle
     cx="405"
     cy="176"
     r="8.5"
     id="circle28"
     style="stroke:#000000" />
  <line
     x1="293.5"
     y1="168.5"
     x2="404.5"
     y2="175.5"
     id="line30"
     style="fill:none;stroke:#000000" />
  <circle
     cx="493"
     cy="104"
     r="8.5"
     id="circle32"
     style="stroke:#000000" />
  <line
     x1="405.5"
     y1="176.5"
     x2="492.5"
     y2="103.5"
     id="line34"
     style="fill:none;stroke:#000000" />
  <ellipse
     cx="265.13837"
     cy="105.89956"
     rx="92.321358"
     ry="46.493572"
     transform="matrix(0.96811045,0.25052377,-0.21143507,0.97739205,0,0)"
     id="ellipse36"
     style="fill:#ffffff;fill-opacity:0;stroke:#000000;stroke-width:1.03882515" />
  <ellipse
     cx="61"
     cy="56"
     rx="30.5"
     ry="31.5"
     id="ellipse38"
     style="fill:#ffffff;fill-opacity:0;stroke:#000000" />
  <ellipse
     cx="61"
     cy="52.5"
     rx="60.5"
     ry="52"
     id="ellipse40"
     style="fill:#ffffff;fill-opacity:0;stroke:#000000" />
  <path
     d="m 164.5,98.5 c -8.04245,13.136 -21.41801,23.72118 -25.4,38.6 -5.00532,18.70252 -12.12762,38.11841 -9.5,57.3 1.40075,10.22541 8.51206,19.6644 16.5,26.2 5.70568,4.66828 12.76401,7.38993 19.3,10.8 10.85076,5.66128 21.37075,12.19326 32.9,16.3 13.30982,4.74095 27.61522,6.48332 41.7,7.6 57.27148,4.5407 116.1111,16.27712 172.3,4.3 19.32314,-4.1189 38.02538,-12.39425 54.5,-23.3 16.89104,-11.18138 39.21196,-16.07295 51.6,-32.1 8.5105,-11.01046 18.51595,-21.42609 23.8,-34.3 12.9005,-31.43041 20.0848,-67.19277 15.1,-100.8 -1.5124,-10.19664 -8.0374,-20.97703 -17.2,-25.7 -14.1809,-7.30972 -31.65774,-4.389075 -47.6,-5 -7.1026,-0.27218 -14.24414,-1.85771 -21.3,-1 -16.51903,2.00805 -31.61418,10.53594 -47.8,14.4 -11.33295,2.70553 -22.89008,4.38973 -34.4,6.2 -65.4268,10.29026 -131.04343,19.37287 -196.4,30.1 -10.89541,1.78829 -24.1375,2.83078 -31.1,11.4"
     id="path42"
     inkscape:connector-curvature="0"
     style="fill:none;stroke:#000000" />
  <text
     xml:space="preserve"
     style="font-style:normal;font-weight:normal;font-size:27.93395996px;line-height:125%;font-family:sans-serif;letter-spacing:0px;word-spacing:0px;fill:#000000;fill-opacity:1;stroke:none;stroke-width:1px;stroke-linecap:butt;stroke-linejoin:miter;stroke-opacity:1"
     x="51.044254"
     y="79.185577"
     id="text3452"
     sodipodi:linespacing="125%"><tspan
       sodipodi:role="line"
       id="tspan3454"
       x="51.044254"
       y="79.185577">ğ›¼</tspan></text>
  <text
     xml:space="preserve"
     style="font-style:normal;font-weight:normal;font-size:27.93395996px;line-height:125%;font-family:sans-serif;letter-spacing:0px;word-spacing:0px;fill:#000000;fill-opacity:1;stroke:none;stroke-width:1px;stroke-linecap:butt;stroke-linejoin:miter;stroke-opacity:1"
     x="190.28703"
     y="175.94524"
     id="text3452-4"
     sodipodi:linespacing="125%"><tspan
       sodipodi:role="line"
       id="tspan3454-6"
       x="190.28703"
       y="175.94524">ğ›½</tspan></text>
  <text
     xml:space="preserve"
     style="font-style:normal;font-weight:normal;font-size:27.93395996px;line-height:125%;font-family:sans-serif;letter-spacing:0px;word-spacing:0px;fill:#000000;fill-opacity:1;stroke:none;stroke-width:1px;stroke-linecap:butt;stroke-linejoin:miter;stroke-opacity:1"
     x="486.91232"
     y="129.80351"
     id="text3452-5"
     sodipodi:linespacing="125%"><tspan
       sodipodi:role="line"
       id="tspan3454-9"
       x="486.91232"
       y="129.80351">ğœ‡</tspan></text>
  <text
     xml:space="preserve"
     style="font-style:normal;font-weight:normal;font-size:27.93395996px;line-height:125%;font-family:sans-serif;letter-spacing:0px;word-spacing:0px;fill:#000000;fill-opacity:1;stroke:none;stroke-width:1px;stroke-linecap:butt;stroke-linejoin:miter;stroke-opacity:1"
     x="271.18484"
     y="190.32706"
     id="text3452-9"
     sodipodi:linespacing="125%"><tspan
       sodipodi:role="line"
       id="tspan3454-4"
       x="271.18484"
       y="190.32706">ğ›¾</tspan></text>
  <text
     xml:space="preserve"
     style="font-style:normal;font-weight:normal;font-size:27.93395996px;line-height:125%;font-family:sans-serif;letter-spacing:0px;word-spacing:0px;fill:#000000;fill-opacity:1;stroke:none;stroke-width:1px;stroke-linecap:butt;stroke-linejoin:miter;stroke-opacity:1"
     x="416.80093"
     y="193.92252"
     id="text3452-3"
     sodipodi:linespacing="125%"><tspan
       sodipodi:role="line"
       id="tspan3454-1"
       x="416.80093"
       y="193.92252">ğ›¿</tspan></text>
</svg>
